<svg width="112" height="48" viewBox="0 0 112 48" fill="none" xmlns="http://www.w3.org/2000/svg">
<path d="M18.2253 16.5213L11.9421 31.5143H7.84106L4.75125 19.5503C4.56103 18.8124 4.39847 18.5439 3.82809 18.2306C2.89378 17.7255 1.35694 17.2517 0 16.9566L0.0949688 16.5214H6.693C7.5345 16.5214 8.29106 17.0827 8.48128 18.0503L10.1151 26.7279L14.1504 16.5214L18.2253 16.5213ZM34.289 26.617C34.3072 22.6621 28.8165 22.4468 28.856 20.6775C28.8667 20.1374 29.3785 19.5659 30.4996 19.4216C31.0563 19.3476 32.5882 19.2933 34.3246 20.0904L35.0051 16.9125C34.0709 16.5734 32.8701 16.2487 31.3776 16.2487C27.5442 16.2487 24.8456 18.2876 24.8228 21.205C24.7977 23.3624 26.7482 24.5663 28.2194 25.2848C29.7301 26.02 30.2352 26.4894 30.2299 27.1488C30.22 28.1551 29.0245 28.5949 27.9095 28.6147C25.959 28.645 24.8277 28.0876 23.9242 27.6668L23.2221 30.954C24.127 31.3695 25.8025 31.7303 27.5365 31.7515C31.6108 31.7513 34.2761 29.7341 34.289 26.617ZM44.412 31.5144H48L44.8692 16.5214H41.5569C40.8127 16.5214 40.1852 16.9554 39.9056 17.6204L34.0892 31.5144H38.1603L38.9684 29.2753H43.9448L44.412 31.5144ZM40.0841 26.2023L42.1266 20.5726L43.3015 26.2023H40.0841ZM23.768 16.5213L20.5589 31.5143H16.6796L19.8894 16.5213H23.768Z" fill="#1A2ADF"/>
<path d="M91.3594 13.8035H80.6118V33.1964H91.3594V13.8035Z" fill="#FF5F00"/>
<path d="M81.2943 23.5C81.2926 21.6323 81.7141 19.7887 82.5269 18.1088C83.3397 16.4289 84.5225 14.9566 85.9857 13.8036C84.1737 12.3735 81.9976 11.4841 79.706 11.2371C77.4144 10.9902 75.0999 11.3955 73.0269 12.407C70.954 13.4184 69.2062 14.995 67.9835 16.9567C66.7607 18.9183 66.1123 21.1858 66.1123 23.5C66.1123 25.8142 66.7607 28.0817 67.9835 30.0433C69.2062 32.005 70.954 33.5816 73.0269 34.593C75.0999 35.6045 77.4144 36.0098 79.706 35.7629C81.9976 35.5159 84.1737 34.6265 85.9857 33.1964C84.5225 32.0433 83.3397 30.5711 82.5269 28.8912C81.7142 27.2113 81.2927 25.3677 81.2943 23.5Z" fill="#EB001B"/>
<path d="M105.859 23.5C105.859 25.8142 105.21 28.0816 103.988 30.0433C102.765 32.0049 101.017 33.5816 98.9444 34.593C96.8715 35.6044 94.5569 36.0098 92.2654 35.7629C89.9739 35.5159 87.7978 34.6266 85.9858 33.1964C87.4478 32.0422 88.6296 30.5697 89.4423 28.8901C90.2549 27.2104 90.6772 25.3674 90.6772 23.5C90.6772 21.6326 90.2549 19.7896 89.4423 18.1099C88.6296 16.4303 87.4478 14.9578 85.9858 13.8036C87.7978 12.3734 89.9739 11.4841 92.2654 11.2371C94.5569 10.9902 96.8715 11.3956 98.9444 12.407C101.017 13.4184 102.765 14.9951 103.988 16.9567C105.21 18.9184 105.859 21.1858 105.859 23.5Z" fill="#F79E1B"/>
<path d="M104.687 31.1425V30.7454H104.846V30.6645H104.44V30.7454H104.599V31.1425H104.687ZM105.475 31.1425V30.6638H105.35L105.207 30.993L105.064 30.6638H104.94V31.1425H105.027V30.7814L105.162 31.0927H105.253L105.387 30.7806V31.1425H105.475Z" fill="#F79E1B"/>
</svg>
