<svg width="24" height="24" viewBox="0 0 24 24" fill="none" xmlns="http://www.w3.org/2000/svg">
<path d="M11.0254 12.9052L11.0149 12.8945L11.004 12.8843C10.0181 11.9559 9.22855 10.8411 8.68026 9.60625L10.0762 7.92842L10.0906 7.91108L10.104 7.89296C10.2507 7.69489 10.3299 7.45492 10.3299 7.20843C10.3299 6.96955 10.2556 6.7368 10.1174 6.54237L7.5406 2.72137C7.38636 2.4826 7.18078 2.28119 6.93878 2.13188C6.69344 1.98051 6.41704 1.8866 6.13026 1.85719C5.84349 1.82778 5.55377 1.86362 5.28282 1.96204C5.01635 2.05883 4.77481 2.21367 4.57567 2.41527L2.69757 4.22708C2.336 4.56939 2.06863 4.99904 1.92124 5.47469C1.77339 5.95186 1.7513 6.45913 1.85712 6.94735L1.85741 6.94868C2.66618 10.6493 4.53143 14.0357 7.22689 16.6971L7.22681 16.6972L7.23616 16.7062C9.98839 19.3372 13.4252 21.1409 17.154 21.9111C17.6421 22.013 18.1478 21.9926 18.626 21.8516C19.1045 21.7105 19.5407 21.4532 19.8956 21.1026C19.8956 21.1026 19.8957 21.1025 19.8957 21.1025L21.7102 19.3101C21.9223 19.1103 22.086 18.8645 22.1886 18.5916C22.2929 18.3143 22.3313 18.0165 22.3007 17.7218C22.2701 17.4271 22.1714 17.1435 22.0124 16.8935C21.8559 16.6474 21.6452 16.4405 21.3966 16.2884L17.5242 13.7935C17.3314 13.6645 17.1045 13.5956 16.8723 13.5956C16.6349 13.5956 16.403 13.6677 16.2075 13.8023L16.1847 13.818L16.1631 13.8352L14.4309 15.2136C13.1562 14.6764 11.9985 13.8924 11.0254 12.9052Z" stroke="white" stroke-width="1.6"/>
</svg>
