<svg width="128" height="40" viewBox="0 0 128 40" fill="none" xmlns="http://www.w3.org/2000/svg">
<g filter="url(#filter0_d_9_1046)">
<path d="M53.454 23.234C52.242 23.234 51.21 22.958 50.358 22.406C49.518 21.854 48.93 21.098 48.594 20.138L50.376 19.094C50.88 20.51 51.924 21.218 53.508 21.218C54.288 21.218 54.87 21.068 55.254 20.768C55.65 20.456 55.848 20.054 55.848 19.562C55.848 19.046 55.638 18.656 55.218 18.392C54.798 18.116 54.054 17.816 52.986 17.492C52.386 17.312 51.9 17.144 51.528 16.988C51.156 16.832 50.76 16.616 50.34 16.34C49.932 16.052 49.626 15.698 49.422 15.278C49.218 14.858 49.116 14.366 49.116 13.802C49.116 12.686 49.512 11.804 50.304 11.156C51.096 10.496 52.05 10.166 53.166 10.166C54.174 10.166 55.056 10.412 55.812 10.904C56.568 11.396 57.15 12.074 57.558 12.938L55.812 13.946C55.284 12.77 54.402 12.182 53.166 12.182C52.566 12.182 52.086 12.326 51.726 12.614C51.366 12.89 51.186 13.268 51.186 13.748C51.186 14.216 51.366 14.588 51.726 14.864C52.098 15.128 52.764 15.41 53.724 15.71C54.204 15.866 54.552 15.986 54.768 16.07C54.996 16.142 55.308 16.262 55.704 16.43C56.112 16.598 56.418 16.766 56.622 16.934C56.826 17.102 57.042 17.312 57.27 17.564C57.51 17.816 57.678 18.104 57.774 18.428C57.87 18.752 57.918 19.118 57.918 19.526C57.918 20.666 57.504 21.572 56.676 22.244C55.86 22.904 54.786 23.234 53.454 23.234ZM61.3515 19.328C61.4955 20.012 61.8255 20.54 62.3415 20.912C62.8575 21.272 63.4875 21.452 64.2315 21.452C65.2635 21.452 66.0375 21.08 66.5535 20.336L68.1555 21.272C67.2675 22.58 65.9535 23.234 64.2135 23.234C62.7495 23.234 61.5675 22.79 60.6675 21.902C59.7675 21.002 59.3175 19.868 59.3175 18.5C59.3175 17.156 59.7615 16.034 60.6495 15.134C61.5375 14.222 62.6775 13.766 64.0695 13.766C65.3895 13.766 66.4695 14.228 67.3095 15.152C68.1615 16.076 68.5875 17.198 68.5875 18.518C68.5875 18.722 68.5635 18.992 68.5155 19.328H61.3515ZM61.3335 17.744H66.6255C66.4935 17.012 66.1875 16.46 65.7075 16.088C65.2395 15.716 64.6875 15.53 64.0515 15.53C63.3315 15.53 62.7315 15.728 62.2515 16.124C61.7715 16.52 61.4655 17.06 61.3335 17.744ZM70.2981 23V9.86H72.2421V23H70.2981ZM79.2152 12.038C77.7992 11.906 77.0912 12.5 77.0912 13.82V14H79.2152V15.872H77.0912V23H75.1472V15.872H73.7792V14H75.1472V13.82C75.1472 12.584 75.4892 11.648 76.1732 11.012C76.8692 10.364 77.8832 10.082 79.2152 10.166V12.038ZM90.9368 23.234C89.0408 23.234 87.4688 22.61 86.2208 21.362C84.9728 20.102 84.3488 18.548 84.3488 16.7C84.3488 14.852 84.9728 13.304 86.2208 12.056C87.4688 10.796 89.0408 10.166 90.9368 10.166C92.0768 10.166 93.1268 10.436 94.0868 10.976C95.0588 11.516 95.8148 12.248 96.3548 13.172L94.5548 14.216C94.2188 13.592 93.7268 13.1 93.0788 12.74C92.4428 12.368 91.7288 12.182 90.9368 12.182C89.5928 12.182 88.5008 12.608 87.6608 13.46C86.8328 14.312 86.4188 15.392 86.4188 16.7C86.4188 18.008 86.8328 19.088 87.6608 19.94C88.5008 20.792 89.5928 21.218 90.9368 21.218C91.7288 21.218 92.4488 21.038 93.0968 20.678C93.7448 20.306 94.2308 19.808 94.5548 19.184L96.3548 20.21C95.8268 21.134 95.0768 21.872 94.1048 22.424C93.1448 22.964 92.0888 23.234 90.9368 23.234ZM105.059 14H107.003V23H105.059V21.704C104.327 22.724 103.277 23.234 101.909 23.234C100.673 23.234 99.6169 22.778 98.7409 21.866C97.8649 20.942 97.4269 19.82 97.4269 18.5C97.4269 17.168 97.8649 16.046 98.7409 15.134C99.6169 14.222 100.673 13.766 101.909 13.766C103.277 13.766 104.327 14.27 105.059 15.278V14ZM100.181 20.57C100.721 21.11 101.399 21.38 102.215 21.38C103.031 21.38 103.709 21.11 104.249 20.57C104.789 20.018 105.059 19.328 105.059 18.5C105.059 17.672 104.789 16.988 104.249 16.448C103.709 15.896 103.031 15.62 102.215 15.62C101.399 15.62 100.721 15.896 100.181 16.448C99.6409 16.988 99.3709 17.672 99.3709 18.5C99.3709 19.328 99.6409 20.018 100.181 20.57ZM111.213 15.512C111.705 14.396 112.629 13.838 113.985 13.838V15.944C113.241 15.896 112.593 16.076 112.041 16.484C111.489 16.88 111.213 17.54 111.213 18.464V23H109.269V14H111.213V15.512ZM116.529 19.328C116.673 20.012 117.003 20.54 117.519 20.912C118.035 21.272 118.665 21.452 119.409 21.452C120.441 21.452 121.215 21.08 121.731 20.336L123.333 21.272C122.445 22.58 121.131 23.234 119.391 23.234C117.927 23.234 116.745 22.79 115.845 21.902C114.945 21.002 114.495 19.868 114.495 18.5C114.495 17.156 114.939 16.034 115.827 15.134C116.715 14.222 117.855 13.766 119.247 13.766C120.567 13.766 121.647 14.228 122.487 15.152C123.339 16.076 123.765 17.198 123.765 18.518C123.765 18.722 123.741 18.992 123.693 19.328H116.529ZM116.511 17.744H121.803C121.671 17.012 121.365 16.46 120.885 16.088C120.417 15.716 119.865 15.53 119.229 15.53C118.509 15.53 117.909 15.728 117.429 16.124C116.949 16.52 116.643 17.06 116.511 17.744Z" fill="#F4F6F5"/>
<g clip-path="url(#clip0_9_1046)">
<path fill-rule="evenodd" clip-rule="evenodd" d="M22.0121 7.72166C22.0121 7.55656 22.0121 2.91033 22.0121 2.75939C21.6772 -1.03306 16.1198 -0.877401 16.016 2.93392C16.016 4.26883 15.9782 7.24052 15.9735 8.55656C15.9729 8.98477 15.8878 9.40866 15.723 9.80392C15.5583 10.1992 15.3172 10.558 15.0134 10.86C14.7097 11.1619 14.3494 11.4009 13.9532 11.5633C13.5569 11.7258 13.1325 11.8084 12.7042 11.8066C12.4636 11.8066 7.4676 11.8443 7.08075 11.8066C6.29499 11.7966 5.53745 12.0991 4.97476 12.6475C4.41207 13.196 4.09033 13.9454 4.08032 14.7311C4.07031 15.5167 4.37285 16.2742 4.92138 16.8368C5.46992 17.3994 6.21951 17.7211 7.00527 17.7311H11.8786C18.0965 17.7311 21.998 15.533 21.998 10.2217L22.0121 7.72166Z" fill="#F4F6F5"/>
<path fill-rule="evenodd" clip-rule="evenodd" d="M18.9834 24.2736C18.9834 24.4387 18.9834 29.0849 18.9834 29.2359C19.3184 33.0094 24.8663 32.8632 24.989 29.0613C24.989 27.7264 25.0267 24.7547 25.0314 23.4434C25.0314 23.0148 25.1161 22.5904 25.2806 22.1946C25.445 21.7988 25.6861 21.4394 25.9899 21.137C26.2936 20.8345 26.6541 20.5951 27.0507 20.4324C27.4473 20.2696 27.8721 20.1868 28.3008 20.1887C28.5414 20.1887 33.5374 20.151 33.9242 20.1887C34.3222 20.2088 34.7202 20.1485 35.0943 20.0113C35.4684 19.874 35.811 19.6628 36.1015 19.3901C36.3921 19.1174 36.6246 18.7889 36.7853 18.4243C36.9459 18.0597 37.0313 17.6664 37.0364 17.268C37.0415 16.8696 36.9661 16.4742 36.8148 16.1056C36.6636 15.737 36.4395 15.4027 36.156 15.1227C35.8724 14.8427 35.5354 14.6228 35.1649 14.4761C34.7944 14.3294 34.3981 14.2589 33.9997 14.2689H29.1169C22.8991 14.2642 18.9976 16.4623 18.9976 21.7642L18.9834 24.2736Z" fill="#F4A3EC"/>
</g>
</g>
<defs>
<filter id="filter0_d_9_1046" x="0" y="0" width="129" height="40" filterUnits="userSpaceOnUse" color-interpolation-filters="sRGB">
<feFlood flood-opacity="0" result="BackgroundImageFix"/>
<feColorMatrix in="SourceAlpha" type="matrix" values="0 0 0 0 0 0 0 0 0 0 0 0 0 0 0 0 0 0 127 0" result="hardAlpha"/>
<feOffset dy="4"/>
<feGaussianBlur stdDeviation="2"/>
<feComposite in2="hardAlpha" operator="out"/>
<feColorMatrix type="matrix" values="0 0 0 0 0 0 0 0 0 0 0 0 0 0 0 0 0 0 0.25 0"/>
<feBlend mode="normal" in2="BackgroundImageFix" result="effect1_dropShadow_9_1046"/>
<feBlend mode="normal" in="SourceGraphic" in2="effect1_dropShadow_9_1046" result="shape"/>
</filter>
<clipPath id="clip0_9_1046">
<rect width="33" height="32" fill="white" transform="translate(4)"/>
</clipPath>
</defs>
</svg>
