<svg width="10" height="7" viewBox="0 0 10 7" fill="none" xmlns="http://www.w3.org/2000/svg">
<path d="M3.5001 5.19998L7.9251 0.774975C8.0626 0.637475 8.2376 0.568726 8.4501 0.568726C8.6626 0.568726 8.8376 0.637475 8.9751 0.774975C9.1126 0.912475 9.18135 1.08748 9.18135 1.29998C9.18135 1.51248 9.1126 1.68748 8.9751 1.82498L4.0251 6.77498C3.8751 6.92498 3.7001 6.99998 3.5001 6.99998C3.3001 6.99998 3.1251 6.92498 2.9751 6.77498L1.0251 4.82498C0.887597 4.68748 0.818848 4.51248 0.818848 4.29998C0.818848 4.08748 0.887597 3.91248 1.0251 3.77498C1.1626 3.63748 1.3376 3.56873 1.5501 3.56873C1.7626 3.56873 1.9376 3.63748 2.0751 3.77498L3.5001 5.19998Z" fill="#F4F6F5"/>
</svg>
